<svg xmlns="http://www.w3.org/2000/svg" xmlns:xlink="http://www.w3.org/1999/xlink" width="655" height="238" viewBox="0 0 655 238">
  <defs>
    <clipPath id="clip-Custom_Size_1">
      <rect width="655" height="238"/>
    </clipPath>
  </defs>
  <g id="Custom_Size_1" data-name="Custom Size – 1" clip-path="url(#clip-Custom_Size_1)">
    <path id="Path_8" data-name="Path 8" d="M84.732-96.186V0H72.174V-43.608H23.184V0H10.626V-96.186H23.184v42.228h48.99V-96.186ZM173.19-75.624V0H160.632V-11.178a24.448,24.448,0,0,1-10.005,9.039A30.908,30.908,0,0,1,136.482,1.1a33.9,33.9,0,0,1-15.87-3.657A26.587,26.587,0,0,1,109.5-13.524q-4.071-7.314-4.071-17.8v-44.3h12.42v42.642q0,11.178,5.658,17.181t15.456,6q10.074,0,15.87-6.21t5.8-18.078V-75.624ZM221.214,1.242A39.116,39.116,0,0,1,205.62-1.725a26.3,26.3,0,0,1-10.9-8.28A22.033,22.033,0,0,1,190.3-22.218h12.972a12.73,12.73,0,0,0,5.313,9.246q4.761,3.588,12.489,3.588,7.176,0,11.316-3.174a9.7,9.7,0,0,0,4.14-8,7.893,7.893,0,0,0-4.416-7.383q-4.416-2.415-13.662-4.761a100.411,100.411,0,0,1-13.731-4.485,24.362,24.362,0,0,1-9.108-6.762q-3.795-4.485-3.795-11.8a17.88,17.88,0,0,1,3.45-10.626,23.387,23.387,0,0,1,9.8-7.659,35.258,35.258,0,0,1,14.49-2.829q12.558,0,20.286,6.348t8.28,17.388H235.566a12.976,12.976,0,0,0-4.761-9.522q-4.347-3.588-11.661-3.588-6.762,0-10.764,2.9a8.956,8.956,0,0,0-4,7.59,8.319,8.319,0,0,0,2.415,6.141,17.641,17.641,0,0,0,6.072,3.864A104.622,104.622,0,0,0,223.008-42.5a109.252,109.252,0,0,1,13.248,4.347,23.168,23.168,0,0,1,8.763,6.417q3.657,4.278,3.795,11.178a19.138,19.138,0,0,1-3.45,11.178,23.009,23.009,0,0,1-9.729,7.8A34.775,34.775,0,0,1,221.214,1.242ZM308.706,0l-29.67-33.4V0H266.478V-102.12h12.558v60.03l29.118-33.534H325.68l-35.6,37.674L325.818,0Zm93.978-75.624L357.144,35.6H344.172l14.9-36.432-30.5-74.8h13.938l23.736,61.272,23.46-61.272ZM490.866,0H478.308L427.8-76.59V0H415.242V-96.324H427.8l50.508,76.452V-96.324h12.558Zm90.39-40.71a73.905,73.905,0,0,1-.414,7.59H520.4q.69,11.178,7.659,17.457a24.359,24.359,0,0,0,16.905,6.279q8.142,0,13.593-3.795a20.089,20.089,0,0,0,7.659-10.143h13.524A32.509,32.509,0,0,1,567.594-5.589q-9.108,6.831-22.632,6.831a38.227,38.227,0,0,1-19.251-4.83,34.189,34.189,0,0,1-13.317-13.731,42.584,42.584,0,0,1-4.83-20.631,43.192,43.192,0,0,1,4.692-20.562A32.937,32.937,0,0,1,525.435-72.1a39.23,39.23,0,0,1,19.527-4.761,37.953,37.953,0,0,1,19.044,4.692,32.489,32.489,0,0,1,12.765,12.9A38.08,38.08,0,0,1,581.256-40.71Zm-12.972-2.622a23.164,23.164,0,0,0-3.174-12.351,20.64,20.64,0,0,0-8.625-7.866A26.9,26.9,0,0,0,544.41-66.24,23.275,23.275,0,0,0,528.2-60.168Q521.5-54.1,520.536-43.332Zm44.85-21.942V-20.7q0,5.52,2.346,7.8t8.142,2.277h9.246V0H621.552Q611.064,0,605.82-4.83T600.576-20.7V-65.274h-9.8v-10.35h9.8V-94.668h12.558v19.044h19.734v10.35Z" transform="translate(5.753 172)" fill="#e14b44"/>
    <path id="Path_1" data-name="Path 1" d="M419.812,189.471H97.792" transform="translate(-62.519 15)" fill="none" stroke="#e14b44" stroke-linecap="round" stroke-linejoin="round" stroke-width="12.5"/>
    <path id="Path_6" data-name="Path 6" d="M323.026,175.961V24.463" transform="translate(750.253 299.693) rotate(180)" fill="none" stroke="#e14b44" stroke-linecap="round" stroke-width="12.5"/>
    <path id="Path_7" data-name="Path 7" d="M323.026,110.818V24.463" transform="translate(167.237 1.049)" fill="none" stroke="#e14b44" stroke-linecap="round" stroke-width="12.5"/>
    <circle id="Ellipse_7" data-name="Ellipse 7" cx="11.5" cy="11.5" r="11.5" transform="translate(478.279 14.012)" fill="#e14b44"/>
    <circle id="Ellipse_8" data-name="Ellipse 8" cx="11.5" cy="11.5" r="11.5" transform="translate(16.379 192.971)" fill="#e14b44"/>
  </g>
</svg>
